<?xml version="1.0" encoding="iso-8859-1"?>
<!-- Generator: Adobe Illustrator 19.0.0, SVG Export Plug-In . SVG Version: 6.00 Build 0)  -->
<svg version="1.1" id="Layer_1" xmlns="http://www.w3.org/2000/svg" xmlns:xlink="http://www.w3.org/1999/xlink" x="0px" y="0px"
	 viewBox="0 0 512 512" style="enable-background:new 0 0 512 512;" xml:space="preserve">
<g>
	<path style="fill:#FFD248;" d="M331.853,189.314c20.908,0,37.916,17.008,37.916,37.916s-17.008,37.916-37.916,37.916
		s-37.916-17.008-37.916-37.916S310.945,189.314,331.853,189.314z"/>
	<path style="fill:#FFD248;" d="M180.19,189.314c20.908,0,37.916,17.008,37.916,37.916s-17.008,37.916-37.916,37.916
		s-37.916-17.008-37.916-37.916S159.282,189.314,180.19,189.314z"/>
</g>
<path style="fill:#546A79;" d="M293.829,308.478c0,0,4.658,48.532-37.808,48.749h-0.108h-0.108
	c-42.466-0.217-37.699-48.749-37.699-48.749H293.829z"/>
<path style="fill:#E7ECED;" d="M256.021,357.227c42.466-0.217,37.808-48.749,37.808-48.749h-75.723c0,0-4.767,48.532,37.699,48.749
	h0.108H256.021z M337.486,120.09c4.117-73.015,113.531-109.523,113.531-109.523l21.666,249.162
	c3.467,14.625-16.25,27.624-16.25,43.332c0,110.714-89.698,200.413-200.413,200.413S55.609,413.776,55.609,303.062
	c0-15.708-19.716-28.708-16.25-43.332L61.025,10.568c0,0,109.414,36.508,113.531,109.523c24.916-11.158,52.432-17.441,81.465-17.441
	S312.57,108.932,337.486,120.09z M369.769,227.23c0-20.908-17.008-37.916-37.916-37.916s-37.916,17.008-37.916,37.916
	s17.008,37.916,37.916,37.916S369.769,248.138,369.769,227.23z M218.105,227.23c0-20.908-17.008-37.916-37.916-37.916
	s-37.916,17.008-37.916,37.916s17.008,37.916,37.916,37.916S218.105,248.138,218.105,227.23z"/>
<path style="fill:#D5DADB;" d="M281.747,347.652c-5.641,5.562-13.767,9.516-25.725,9.576h-0.108h-0.108
	c-42.466-0.217-37.699-48.749-37.699-48.749h31.093c-14.025-19.046-26.486-39.293-37.33-60.518
	c-6.78,10.327-18.428,17.186-31.679,17.186c-20.908,0-37.916-17.008-37.916-37.916s17.008-37.916,37.916-37.916
	c2.459,0,4.851,0.277,7.181,0.726c-10.966-32.229-18.321-66.118-21.515-101.241C139.166,36.648,61.025,10.568,61.025,10.568
	L39.359,259.729c-3.467,14.625,16.25,27.624,16.25,43.332c0,110.714,89.698,200.413,200.413,200.413
	c58.107,0,110.263-24.857,146.862-64.342C357.293,415.791,316.339,384.75,281.747,347.652z"/>
<path d="M480.711,258.894L458.198,0l-9.774,3.261c-1.157,0.386-28.68,9.674-57.101,28.291
	c-34.256,22.438-54.978,48.98-60.563,77.338c-23.918-9.272-49.017-13.965-74.759-13.965s-50.842,4.693-74.76,13.965
	c-5.587-28.356-26.309-54.901-60.563-77.338C92.255,12.935,64.733,3.648,63.575,3.261L53.802,0L31.289,258.894
	c-2.26,10.834,3.639,20.033,8.856,28.166c3.762,5.866,7.317,11.406,7.317,16.402c0,28.596,5.681,56.304,16.884,82.354l14.927-6.421
	c-10.326-24.011-15.563-49.558-15.563-75.934c0-9.76-5.254-17.949-9.888-25.176c-3.921-6.111-7.623-11.884-6.58-16.282l0.136-0.578
	L68.164,22.412c9.177,3.779,23.742,10.404,38.88,19.781v82.523h16.25V53.314c22.015,16.717,41.534,39.352,43.129,67.634
	l0.664,11.781l10.768-4.823c24.79-11.103,51.082-16.732,78.145-16.732s53.353,5.629,78.144,16.732l10.768,4.823l0.665-11.781
	c1.595-28.283,21.114-50.919,43.129-67.635v71.402h16.25V42.192c15.139-9.378,29.705-16.003,38.88-19.78l20.732,238.423l0.051,0.591
	l0.137,0.577c1.042,4.399-2.661,10.172-6.58,16.283c-4.635,7.226-9.888,15.417-9.888,25.176
	c0,106.028-86.26,192.288-192.288,192.288c-34.28,0-67.924-9.121-97.294-26.38c-28.521-16.759-52.39-40.729-69.026-69.319
	l-14.045,8.172c18.037,30.998,43.916,56.987,74.839,75.157C182.337,502.104,218.827,512,255.999,512
	c55.717,0,108.088-21.688,147.469-61.068s61.068-91.753,61.068-147.469c0-4.995,3.554-10.536,7.317-16.402
	C477.071,278.927,482.97,269.729,480.711,258.894z"/>
<path d="M180.168,181.59c-25.387,0-46.041,20.653-46.041,46.041s20.653,46.041,46.041,46.041s46.041-20.653,46.041-46.041
	S205.555,181.59,180.168,181.59z M180.168,257.422c-16.427,0-29.791-13.364-29.791-29.791s13.364-29.791,29.791-29.791
	s29.791,13.364,29.791,29.791S196.595,257.422,180.168,257.422z"/>
<path d="M331.831,181.59c-25.387,0-46.041,20.653-46.041,46.041s20.653,46.041,46.041,46.041c25.387,0,46.041-20.653,46.041-46.041
	S357.219,181.59,331.831,181.59z M331.831,257.422c-16.427,0-29.791-13.364-29.791-29.791s13.364-29.791,29.791-29.791
	c16.427,0,29.791,13.364,29.791,29.791S348.259,257.422,331.831,257.422z"/>
<g>
	<rect x="98.917" y="143.669" style="fill:#FFFFFF;" width="32.499" height="16.25"/>
	<rect x="380.578" y="143.669" style="fill:#FFFFFF;" width="32.499" height="16.25"/>
</g>
<path d="M209.998,308.085c-0.109,1.107-2.489,27.319,12.693,44.154c6.448,7.149,14.899,11.483,25.184,12.949v35
	c-0.821,3.831-6.675,25.148-35.208,25.148v16.25c22.04,0,35.646-9.943,43.332-20.729c7.686,10.787,21.292,20.729,43.332,20.729
	v-16.25c-12.775,0-22.537-4.21-29.012-12.512c-4.224-5.417-5.797-11.022-6.195-12.696v-34.973
	c10.186-1.496,18.572-5.815,24.985-12.91c15.212-16.828,12.89-43.032,12.784-44.141l-0.705-7.348h-90.472L209.998,308.085z
	 M285.687,317.004c-0.454,6.94-2.268,17.305-8.63,24.342c-4.919,5.441-11.82,8.111-21.056,8.157h-0.198
	c-9.234-0.051-16.103-2.701-20.999-8.1c-6.416-7.075-8.206-17.459-8.632-24.399H285.687z"/>
<rect x="323.704" y="208.342" width="16.25" height="38.576"/>
<rect x="109.75" y="306.165" width="27.083" height="16.25"/>
<rect x="136.833" y="338.665" style="fill:#FFFFFF;" width="27.083" height="16.25"/>
<rect x="342.662" y="338.665" width="27.083" height="16.25"/>
<rect x="369.745" y="306.165" style="fill:#FFFFFF;" width="27.083" height="16.25"/>
<rect x="172.063" y="208.342" width="16.25" height="38.576"/>
<g>
</g>
<g>
</g>
<g>
</g>
<g>
</g>
<g>
</g>
<g>
</g>
<g>
</g>
<g>
</g>
<g>
</g>
<g>
</g>
<g>
</g>
<g>
</g>
<g>
</g>
<g>
</g>
<g>
</g>
</svg>
